<mxfile host="app.diagrams.net" modified="2020-11-13T02:23:13.867Z" agent="5.0 (X11; Linux x86_64) AppleWebKit/537.36 (KHTML, like Gecko) Chrome/86.0.4240.75 Safari/537.36" etag="6HHiOqyn4pzi2_qt2GiL" version="13.9.7" type="github">
  <diagram id="nurQsswEIXAcTQoAJD8J" name="Page-1">
    <mxGraphModel dx="2177" dy="713" grid="1" gridSize="10" guides="1" tooltips="1" connect="1" arrows="1" fold="1" page="1" pageScale="1" pageWidth="827" pageHeight="1169" math="0" shadow="0">
      <root>
        <mxCell id="0" />
        <mxCell id="1" parent="0" />
        <mxCell id="lx4yJX3O_2qWYLayzgTq-3" value="" style="rounded=0;orthogonalLoop=1;jettySize=auto;html=1;" edge="1" parent="1" source="lx4yJX3O_2qWYLayzgTq-1" target="lx4yJX3O_2qWYLayzgTq-2">
          <mxGeometry relative="1" as="geometry" />
        </mxCell>
        <mxCell id="lx4yJX3O_2qWYLayzgTq-5" value="" style="edgeStyle=none;rounded=0;orthogonalLoop=1;jettySize=auto;html=1;" edge="1" parent="1" source="lx4yJX3O_2qWYLayzgTq-1" target="lx4yJX3O_2qWYLayzgTq-4">
          <mxGeometry relative="1" as="geometry" />
        </mxCell>
        <mxCell id="lx4yJX3O_2qWYLayzgTq-7" value="" style="edgeStyle=none;rounded=0;orthogonalLoop=1;jettySize=auto;html=1;" edge="1" parent="1" source="lx4yJX3O_2qWYLayzgTq-1" target="lx4yJX3O_2qWYLayzgTq-6">
          <mxGeometry relative="1" as="geometry" />
        </mxCell>
        <mxCell id="lx4yJX3O_2qWYLayzgTq-9" value="" style="edgeStyle=none;rounded=0;orthogonalLoop=1;jettySize=auto;html=1;" edge="1" parent="1" source="lx4yJX3O_2qWYLayzgTq-1" target="lx4yJX3O_2qWYLayzgTq-8">
          <mxGeometry relative="1" as="geometry" />
        </mxCell>
        <mxCell id="lx4yJX3O_2qWYLayzgTq-11" value="" style="edgeStyle=none;rounded=0;orthogonalLoop=1;jettySize=auto;html=1;" edge="1" parent="1" source="lx4yJX3O_2qWYLayzgTq-1" target="lx4yJX3O_2qWYLayzgTq-10">
          <mxGeometry relative="1" as="geometry" />
        </mxCell>
        <mxCell id="lx4yJX3O_2qWYLayzgTq-13" value="" style="edgeStyle=none;rounded=0;orthogonalLoop=1;jettySize=auto;html=1;" edge="1" parent="1" source="lx4yJX3O_2qWYLayzgTq-1" target="lx4yJX3O_2qWYLayzgTq-12">
          <mxGeometry relative="1" as="geometry" />
        </mxCell>
        <mxCell id="lx4yJX3O_2qWYLayzgTq-1" value="&lt;pre style=&quot;background-color: #ffffff ; color: #080808 ; font-family: &amp;#34;jetbrains mono&amp;#34; ; font-size: 10.5pt&quot;&gt;ElementSpec&lt;/pre&gt;" style="rounded=1;whiteSpace=wrap;html=1;" vertex="1" parent="1">
          <mxGeometry x="490" y="110" width="210" height="70" as="geometry" />
        </mxCell>
        <mxCell id="lx4yJX3O_2qWYLayzgTq-2" value="&lt;pre style=&quot;background-color: #ffffff ; color: #080808 ; font-family: &amp;#34;jetbrains mono&amp;#34; ; font-size: 10.5pt&quot;&gt;&lt;pre style=&quot;font-family: &amp;#34;jetbrains mono&amp;#34; ; font-size: 10.5pt&quot;&gt;&lt;span style=&quot;color: #000000&quot;&gt;WorkflowSpec&lt;/span&gt;&lt;/pre&gt;&lt;/pre&gt;" style="rounded=1;whiteSpace=wrap;html=1;" vertex="1" parent="1">
          <mxGeometry x="-20" y="530" width="210" height="70" as="geometry" />
        </mxCell>
        <mxCell id="lx4yJX3O_2qWYLayzgTq-15" value="" style="edgeStyle=none;rounded=0;orthogonalLoop=1;jettySize=auto;html=1;" edge="1" parent="1" source="lx4yJX3O_2qWYLayzgTq-4" target="lx4yJX3O_2qWYLayzgTq-14">
          <mxGeometry relative="1" as="geometry" />
        </mxCell>
        <mxCell id="lx4yJX3O_2qWYLayzgTq-17" value="" style="edgeStyle=none;rounded=0;orthogonalLoop=1;jettySize=auto;html=1;" edge="1" parent="1" source="lx4yJX3O_2qWYLayzgTq-4" target="lx4yJX3O_2qWYLayzgTq-16">
          <mxGeometry relative="1" as="geometry" />
        </mxCell>
        <mxCell id="lx4yJX3O_2qWYLayzgTq-4" value="&lt;pre style=&quot;background-color: #ffffff ; color: #080808 ; font-family: &amp;#34;jetbrains mono&amp;#34; ; font-size: 10.5pt&quot;&gt;&lt;pre style=&quot;font-family: &amp;#34;jetbrains mono&amp;#34; ; font-size: 10.5pt&quot;&gt;&lt;span style=&quot;color: #000000&quot;&gt;UserTaskSpec&lt;/span&gt;&lt;/pre&gt;&lt;/pre&gt;" style="rounded=1;whiteSpace=wrap;html=1;" vertex="1" parent="1">
          <mxGeometry x="190" y="530" width="210" height="70" as="geometry" />
        </mxCell>
        <mxCell id="lx4yJX3O_2qWYLayzgTq-6" value="&lt;pre style=&quot;background-color: #ffffff ; color: #080808 ; font-family: &amp;#34;jetbrains mono&amp;#34; ; font-size: 10.5pt&quot;&gt;&lt;pre style=&quot;font-family: &amp;#34;jetbrains mono&amp;#34; ; font-size: 10.5pt&quot;&gt;&lt;span style=&quot;color: #000000&quot;&gt;TransitionSpec&lt;/span&gt;&lt;/pre&gt;&lt;/pre&gt;" style="rounded=1;whiteSpace=wrap;html=1;" vertex="1" parent="1">
          <mxGeometry x="400" y="530" width="210" height="70" as="geometry" />
        </mxCell>
        <mxCell id="lx4yJX3O_2qWYLayzgTq-8" value="&lt;pre style=&quot;background-color: #ffffff ; color: #080808 ; font-family: &amp;#34;jetbrains mono&amp;#34; ; font-size: 10.5pt&quot;&gt;&lt;pre style=&quot;font-family: &amp;#34;jetbrains mono&amp;#34; ; font-size: 10.5pt&quot;&gt;&lt;span style=&quot;color: #000000&quot;&gt;KanbanSpec&lt;/span&gt;&lt;/pre&gt;&lt;/pre&gt;" style="rounded=1;whiteSpace=wrap;html=1;" vertex="1" parent="1">
          <mxGeometry x="610" y="530" width="210" height="70" as="geometry" />
        </mxCell>
        <mxCell id="lx4yJX3O_2qWYLayzgTq-10" value="&lt;pre style=&quot;background-color: #ffffff ; color: #080808 ; font-family: &amp;#34;jetbrains mono&amp;#34; ; font-size: 10.5pt&quot;&gt;&lt;pre style=&quot;font-family: &amp;#34;jetbrains mono&amp;#34; ; font-size: 10.5pt&quot;&gt;&lt;span style=&quot;color: #000000&quot;&gt;KanbanitemSpec&lt;/span&gt;&lt;/pre&gt;&lt;/pre&gt;" style="rounded=1;whiteSpace=wrap;html=1;" vertex="1" parent="1">
          <mxGeometry x="820" y="530" width="210" height="70" as="geometry" />
        </mxCell>
        <mxCell id="lx4yJX3O_2qWYLayzgTq-19" value="" style="edgeStyle=none;rounded=0;orthogonalLoop=1;jettySize=auto;html=1;" edge="1" parent="1" source="lx4yJX3O_2qWYLayzgTq-12" target="lx4yJX3O_2qWYLayzgTq-18">
          <mxGeometry relative="1" as="geometry" />
        </mxCell>
        <mxCell id="lx4yJX3O_2qWYLayzgTq-21" value="" style="edgeStyle=none;rounded=0;orthogonalLoop=1;jettySize=auto;html=1;" edge="1" parent="1" source="lx4yJX3O_2qWYLayzgTq-12" target="lx4yJX3O_2qWYLayzgTq-20">
          <mxGeometry relative="1" as="geometry" />
        </mxCell>
        <mxCell id="lx4yJX3O_2qWYLayzgTq-23" value="" style="edgeStyle=none;rounded=0;orthogonalLoop=1;jettySize=auto;html=1;" edge="1" parent="1" source="lx4yJX3O_2qWYLayzgTq-12" target="lx4yJX3O_2qWYLayzgTq-22">
          <mxGeometry relative="1" as="geometry" />
        </mxCell>
        <mxCell id="lx4yJX3O_2qWYLayzgTq-25" value="" style="edgeStyle=none;rounded=0;orthogonalLoop=1;jettySize=auto;html=1;" edge="1" parent="1" source="lx4yJX3O_2qWYLayzgTq-12" target="lx4yJX3O_2qWYLayzgTq-24">
          <mxGeometry relative="1" as="geometry" />
        </mxCell>
        <mxCell id="lx4yJX3O_2qWYLayzgTq-12" value="&lt;pre style=&quot;background-color: #ffffff ; color: #080808 ; font-family: &amp;#34;jetbrains mono&amp;#34; ; font-size: 10.5pt&quot;&gt;&lt;pre style=&quot;font-family: &amp;#34;jetbrains mono&amp;#34; ; font-size: 10.5pt&quot;&gt;&lt;span style=&quot;color: #000000&quot;&gt;NodeSpec&lt;/span&gt;&lt;/pre&gt;&lt;pre style=&quot;font-family: &amp;#34;jetbrains mono&amp;#34; ; font-size: 10.5pt&quot;&gt;&lt;pre style=&quot;font-family: &amp;#34;jetbrains mono&amp;#34; ; font-size: 10.5pt&quot;&gt;&lt;span style=&quot;color: #000000&quot;&gt;from_xml_elem&lt;/span&gt;&lt;/pre&gt;&lt;/pre&gt;&lt;/pre&gt;" style="rounded=1;whiteSpace=wrap;html=1;" vertex="1" parent="1">
          <mxGeometry x="1031" y="530" width="210" height="70" as="geometry" />
        </mxCell>
        <mxCell id="lx4yJX3O_2qWYLayzgTq-14" value="&lt;pre style=&quot;background-color: #ffffff ; color: #080808 ; font-family: &amp;#34;jetbrains mono&amp;#34; ; font-size: 10.5pt&quot;&gt;&lt;pre style=&quot;font-family: &amp;#34;jetbrains mono&amp;#34; ; font-size: 10.5pt&quot;&gt;&lt;pre style=&quot;font-family: &amp;#34;jetbrains mono&amp;#34; ; font-size: 10.5pt&quot;&gt;&lt;span style=&quot;color: #000000&quot;&gt;ApprovalSpec&lt;/span&gt;&lt;/pre&gt;&lt;/pre&gt;&lt;/pre&gt;" style="rounded=1;whiteSpace=wrap;html=1;" vertex="1" parent="1">
          <mxGeometry x="60" y="850" width="210" height="70" as="geometry" />
        </mxCell>
        <mxCell id="lx4yJX3O_2qWYLayzgTq-16" value="&lt;pre style=&quot;background-color: #ffffff ; color: #080808 ; font-family: &amp;#34;jetbrains mono&amp;#34; ; font-size: 10.5pt&quot;&gt;&lt;pre style=&quot;font-family: &amp;#34;jetbrains mono&amp;#34; ; font-size: 10.5pt&quot;&gt;&lt;pre style=&quot;font-family: &amp;#34;jetbrains mono&amp;#34; ; font-size: 10.5pt&quot;&gt;&lt;span style=&quot;color: #000000&quot;&gt;ApprovalflowSpec&lt;/span&gt;&lt;/pre&gt;&lt;/pre&gt;&lt;/pre&gt;" style="rounded=1;whiteSpace=wrap;html=1;" vertex="1" parent="1">
          <mxGeometry x="270" y="850" width="210" height="70" as="geometry" />
        </mxCell>
        <mxCell id="lx4yJX3O_2qWYLayzgTq-18" value="&lt;pre style=&quot;background-color: #ffffff ; color: #080808 ; font-family: &amp;#34;jetbrains mono&amp;#34; ; font-size: 10.5pt&quot;&gt;&lt;pre style=&quot;font-family: &amp;#34;jetbrains mono&amp;#34; ; font-size: 10.5pt&quot;&gt;&lt;pre style=&quot;font-family: &amp;#34;jetbrains mono&amp;#34; ; font-size: 10.5pt&quot;&gt;&lt;span style=&quot;color: #000000&quot;&gt;SimpleContainerSpec&lt;/span&gt;&lt;/pre&gt;&lt;/pre&gt;&lt;/pre&gt;" style="rounded=1;whiteSpace=wrap;html=1;" vertex="1" parent="1">
          <mxGeometry x="740" y="900" width="210" height="70" as="geometry" />
        </mxCell>
        <mxCell id="lx4yJX3O_2qWYLayzgTq-20" value="&lt;pre style=&quot;background-color: #ffffff ; color: #080808 ; font-family: &amp;#34;jetbrains mono&amp;#34; ; font-size: 10.5pt&quot;&gt;&lt;pre style=&quot;font-family: &amp;#34;jetbrains mono&amp;#34; ; font-size: 10.5pt&quot;&gt;&lt;pre style=&quot;font-family: &amp;#34;jetbrains mono&amp;#34; ; font-size: 10.5pt&quot;&gt;&lt;span style=&quot;color: #000000&quot;&gt;RichTextSpec&lt;/span&gt;&lt;/pre&gt;&lt;/pre&gt;&lt;/pre&gt;" style="rounded=1;whiteSpace=wrap;html=1;" vertex="1" parent="1">
          <mxGeometry x="950" y="900" width="210" height="70" as="geometry" />
        </mxCell>
        <mxCell id="lx4yJX3O_2qWYLayzgTq-22" value="&lt;pre style=&quot;background-color: #ffffff ; color: #080808 ; font-family: &amp;#34;jetbrains mono&amp;#34; ; font-size: 10.5pt&quot;&gt;&lt;pre style=&quot;font-family: &amp;#34;jetbrains mono&amp;#34; ; font-size: 10.5pt&quot;&gt;&lt;pre style=&quot;font-family: &amp;#34;jetbrains mono&amp;#34; ; font-size: 10.5pt&quot;&gt;&lt;span style=&quot;color: #000000&quot;&gt;ReverseFkSpec&lt;/span&gt;&lt;/pre&gt;&lt;/pre&gt;&lt;/pre&gt;" style="rounded=1;whiteSpace=wrap;html=1;" vertex="1" parent="1">
          <mxGeometry x="1160" y="900" width="210" height="70" as="geometry" />
        </mxCell>
        <mxCell id="lx4yJX3O_2qWYLayzgTq-24" value="&lt;pre style=&quot;background-color: #ffffff ; color: #080808 ; font-family: &amp;#34;jetbrains mono&amp;#34; ; font-size: 10.5pt&quot;&gt;&lt;pre style=&quot;font-family: &amp;#34;jetbrains mono&amp;#34; ; font-size: 10.5pt&quot;&gt;&lt;pre style=&quot;font-family: &amp;#34;jetbrains mono&amp;#34; ; font-size: 10.5pt&quot;&gt;&lt;span style=&quot;color: #000000&quot;&gt;GridSpec&lt;/span&gt;&lt;/pre&gt;&lt;pre style=&quot;font-family: &amp;#34;jetbrains mono&amp;#34; ; font-size: 10.5pt&quot;&gt;&lt;pre style=&quot;font-family: &amp;#34;jetbrains mono&amp;#34; ; font-size: 10.5pt&quot;&gt;&lt;span style=&quot;color: #000000&quot;&gt;from_xml_string&lt;/span&gt;&lt;/pre&gt;&lt;/pre&gt;&lt;/pre&gt;&lt;/pre&gt;" style="rounded=1;whiteSpace=wrap;html=1;" vertex="1" parent="1">
          <mxGeometry x="1370" y="900" width="210" height="70" as="geometry" />
        </mxCell>
      </root>
    </mxGraphModel>
  </diagram>
</mxfile>
